<svg xmlns="http://www.w3.org/2000/svg" xmlns:xlink="http://www.w3.org/1999/xlink" preserveAspectRatio="xMidYMid" width="14" height="14" viewBox="0 0 14 14">
  <defs>
    <style>
      .cls-1 {
        fill: #000;
        fill-rule: evenodd;
      }
    </style>
  </defs>
  <path d="M14.000,6.976 C14.000,7.266 13.849,7.510 13.632,7.669 L7.597,13.709 C7.258,14.047 6.710,14.047 6.371,13.709 C6.032,13.371 6.032,12.823 6.371,12.485 L11.002,7.850 L0.876,7.850 C0.392,7.850 0.000,7.459 0.000,6.976 C0.000,6.493 0.392,6.102 0.876,6.102 L11.005,6.102 L6.371,1.464 C6.032,1.126 6.032,0.578 6.371,0.240 C6.710,-0.099 7.258,-0.099 7.597,0.240 L13.635,6.283 C13.666,6.306 13.702,6.318 13.730,6.346 C13.732,6.347 13.732,6.349 13.733,6.350 C13.897,6.509 14.000,6.729 14.000,6.976 Z" class="cls-1"/>
</svg>
