<svg xmlns="http://www.w3.org/2000/svg" xmlns:xlink="http://www.w3.org/1999/xlink" preserveAspectRatio="xMidYMid" width="22.344" height="16.31" viewBox="0 0 22.344 16.31">
  <defs>
    <style>
      .cls-1 {
        fill: #959595;
        fill-rule: evenodd;
      }
    </style>
  </defs>
  <path d="M21.173,6.500 L21.215,6.457 C21.466,6.198 21.598,5.865 21.585,5.521 C21.567,5.064 21.292,4.630 20.843,4.360 L16.028,1.458 C16.044,1.026 15.881,0.619 15.565,0.341 C15.302,0.110 14.946,-0.016 14.569,-0.013 L8.520,0.045 C8.068,0.050 7.648,0.240 7.372,0.570 C7.299,0.656 7.241,0.752 7.190,0.852 C6.821,0.816 6.422,0.935 6.081,1.214 L2.044,4.527 L1.999,4.486 L1.948,4.605 L1.496,4.975 C1.133,5.275 0.919,5.689 0.910,6.107 C0.906,6.353 0.977,6.581 1.102,6.784 C0.283,9.173 -0.835,13.476 1.018,15.103 C1.292,15.344 1.619,15.517 1.991,15.619 C3.542,16.041 5.653,13.444 6.905,11.636 L6.912,11.642 C7.506,12.129 8.509,12.115 9.196,11.613 L9.416,11.452 C9.686,11.615 9.985,11.713 10.285,11.730 L12.329,11.841 C12.604,11.857 12.873,11.798 13.121,11.693 L13.655,12.057 C14.259,12.469 15.059,12.483 15.627,12.139 C16.302,13.182 17.306,14.601 18.286,15.461 L18.287,15.462 C19.070,16.149 19.743,16.402 20.346,16.234 C21.026,16.044 21.541,15.612 21.878,14.947 C22.965,12.804 21.829,8.547 21.173,6.500 L21.173,6.500 ZM20.058,15.196 C19.980,15.219 19.674,15.244 19.000,14.652 C18.067,13.833 17.068,12.389 16.430,11.389 L20.319,7.381 C20.987,9.619 21.697,12.925 20.916,14.462 C20.719,14.851 20.438,15.090 20.058,15.196 L20.058,15.196 ZM15.152,11.160 C15.127,11.187 15.094,11.208 15.058,11.227 C14.860,11.339 14.523,11.343 14.265,11.166 L13.984,10.976 C14.102,10.794 14.189,10.590 14.233,10.372 L15.822,2.594 L19.970,5.094 L20.287,5.283 C20.322,5.305 20.354,5.329 20.382,5.353 C20.459,5.421 20.504,5.498 20.507,5.566 C20.508,5.584 20.509,5.638 20.443,5.706 L20.363,5.788 L15.459,10.843 L15.152,11.160 ZM12.388,10.767 L11.766,10.732 L10.493,10.662 L10.346,10.654 C10.185,10.646 10.016,10.565 9.873,10.449 C9.728,10.330 9.611,10.174 9.559,10.012 C9.552,9.986 9.541,9.958 9.537,9.934 L8.716,5.109 L8.394,3.225 L8.122,1.610 C8.112,1.555 8.112,1.504 8.119,1.453 C8.130,1.381 8.154,1.313 8.199,1.262 C8.272,1.174 8.389,1.125 8.528,1.123 L14.576,1.067 C14.649,1.065 14.710,1.081 14.765,1.104 C14.796,1.118 14.829,1.132 14.854,1.154 C14.942,1.232 14.975,1.359 14.944,1.511 L14.921,1.625 L14.792,2.243 L13.178,10.157 C13.162,10.231 13.131,10.301 13.092,10.367 C12.994,10.529 12.836,10.661 12.657,10.724 C12.569,10.755 12.478,10.771 12.388,10.767 L12.388,10.767 ZM8.560,10.743 C8.244,10.975 7.791,10.967 7.596,10.808 L7.504,10.734 L7.084,10.389 L4.425,8.209 L2.343,6.505 L2.065,6.277 L1.727,6.646 L1.704,6.672 L2.058,6.270 C2.009,6.227 1.988,6.181 1.988,6.125 C1.991,6.024 2.062,5.906 2.180,5.809 L2.419,5.613 L2.840,5.267 L6.763,2.046 C6.877,1.954 6.995,1.911 7.081,1.921 L8.474,10.116 C8.506,10.305 8.575,10.490 8.667,10.664 L8.560,10.743 ZM2.275,14.578 C2.060,14.520 1.882,14.426 1.730,14.293 C0.611,13.310 1.143,10.190 1.968,7.592 L6.064,10.949 C4.639,13.000 2.968,14.767 2.275,14.578 L2.275,14.578 Z" class="cls-1"/>
</svg>
