<svg xmlns="http://www.w3.org/2000/svg" xmlns:xlink="http://www.w3.org/1999/xlink" preserveAspectRatio="xMidYMid" width="12" height="17" viewBox="0 0 12 17">
  <defs>
    <style>
      .cls-1 {
        fill: #959595;
        fill-rule: evenodd;
      }
    </style>
  </defs>
  <path d="M11.975,15.847 L11.740,15.970 C11.620,16.031 9.701,17.000 6.389,17.000 C4.693,17.000 2.633,16.746 0.262,15.987 L0.009,15.905 L0.000,15.847 L0.000,12.098 C0.000,9.547 2.022,7.473 4.506,7.473 L7.493,7.473 C9.978,7.473 12.000,9.547 12.000,12.098 L12.000,15.847 L11.975,15.847 ZM5.375,14.747 L5.974,15.716 C5.982,15.729 5.997,15.737 6.012,15.737 L6.013,15.737 C6.029,15.737 6.042,15.730 6.051,15.717 L6.696,14.749 C6.701,14.740 6.705,14.730 6.703,14.718 L6.381,10.017 C6.379,9.993 6.359,9.975 6.335,9.975 L5.713,9.975 C5.690,9.975 5.670,9.993 5.668,10.017 L5.368,14.719 C5.368,14.730 5.370,14.738 5.375,14.747 ZM6.796,8.234 L5.253,8.234 C5.127,8.234 5.024,8.339 5.024,8.470 L5.666,9.832 L6.404,9.832 L7.026,8.470 C7.026,8.339 6.922,8.234 6.796,8.234 ZM6.000,7.227 C4.056,7.227 2.480,5.609 2.480,3.614 C2.480,1.620 4.056,0.002 6.000,0.002 C7.945,0.002 9.520,1.620 9.520,3.614 C9.520,5.609 7.945,7.227 6.000,7.227 Z" class="cls-1"/>
</svg>
