<svg xmlns="http://www.w3.org/2000/svg" xmlns:xlink="http://www.w3.org/1999/xlink" preserveAspectRatio="xMidYMid" width="22" height="22" viewBox="0 0 22 22">
  <defs>
    <style>
      .cls-1 {
        fill: #000;
        fill-rule: evenodd;
      }
    </style>
  </defs>
  <path d="M21.123,15.272 C19.963,17.977 17.992,19.958 15.266,21.121 C13.904,21.702 12.476,21.998 10.985,21.998 C9.493,21.998 8.076,21.705 6.716,21.121 C4.012,19.960 2.033,17.982 0.870,15.272 C0.289,13.915 0.005,12.481 0.005,10.989 C0.005,9.496 0.289,8.075 0.870,6.717 C2.033,4.007 4.012,2.042 6.716,0.881 C8.076,0.297 9.493,0.002 10.985,0.002 C12.476,0.002 13.904,0.299 15.266,0.881 C17.993,2.044 19.964,4.012 21.123,6.717 C21.708,8.079 22.001,9.496 22.001,10.989 C22.001,12.481 21.707,13.911 21.123,15.272 ZM19.368,6.152 C18.501,4.672 17.321,3.495 15.831,2.626 C14.350,1.762 12.729,1.326 10.985,1.326 C9.241,1.326 7.629,1.760 6.151,2.626 C4.671,3.492 3.489,4.669 2.627,6.152 C1.769,7.629 1.340,9.244 1.340,10.989 C1.340,12.300 1.587,13.566 2.098,14.755 C2.609,15.949 3.295,16.987 4.154,17.848 C5.015,18.708 6.042,19.387 7.233,19.905 C8.423,20.423 9.675,20.676 10.985,20.676 C12.729,20.676 14.352,20.240 15.831,19.376 C17.322,18.507 18.505,17.332 19.368,15.850 C20.236,14.360 20.666,12.734 20.666,10.989 C20.666,9.244 20.233,7.631 19.368,6.152 ZM14.124,15.225 L10.528,11.627 C10.384,11.482 10.324,11.301 10.348,11.084 C10.348,11.049 10.324,11.001 10.324,10.989 L10.324,4.659 C10.324,4.286 10.636,3.985 10.985,3.985 C11.357,3.985 11.682,4.286 11.682,4.659 L11.682,10.893 L15.049,14.286 C15.309,14.546 15.326,14.948 15.049,15.225 C14.810,15.465 14.364,15.465 14.124,15.225 Z" class="cls-1"/>
</svg>
