<svg xmlns="http://www.w3.org/2000/svg" xmlns:xlink="http://www.w3.org/1999/xlink" preserveAspectRatio="xMidYMid" width="20.969" height="17" viewBox="0 0 20.969 17">
  <defs>
    <style>
      .cls-1 {
        fill: #959595;
        fill-rule: evenodd;
      }
    </style>
  </defs>
  <path d="M17.688,9.619 L20.920,16.492 C21.051,16.771 20.913,17.000 20.613,17.000 L0.339,17.000 C0.039,17.000 -0.099,16.771 0.032,16.492 L3.264,9.619 C3.315,9.510 3.453,9.420 3.571,9.420 L6.341,9.420 C6.427,9.420 6.542,9.475 6.598,9.542 C6.786,9.767 6.978,9.987 7.168,10.205 C7.350,10.411 7.532,10.620 7.713,10.834 L4.425,10.834 C4.307,10.834 4.169,10.924 4.118,11.033 L1.977,15.586 L18.975,15.586 L16.834,11.033 C16.783,10.924 16.644,10.834 16.527,10.834 L13.231,10.834 C13.412,10.620 13.594,10.411 13.776,10.205 C13.967,9.986 14.160,9.767 14.348,9.542 C14.404,9.475 14.519,9.420 14.604,9.420 L17.381,9.420 C17.499,9.420 17.637,9.510 17.688,9.619 L17.688,9.619 ZM15.227,4.922 C15.227,8.678 12.207,9.382 10.787,12.991 C10.671,13.284 10.273,13.283 10.157,12.989 C8.876,9.735 6.295,8.843 5.801,5.944 C5.314,3.091 7.223,0.295 10.009,0.023 C12.843,-0.255 15.227,2.045 15.227,4.922 L15.227,4.922 ZM12.983,4.922 C12.983,3.486 11.859,2.323 10.472,2.323 C9.086,2.323 7.962,3.486 7.962,4.922 C7.962,6.358 9.086,7.521 10.472,7.521 C11.859,7.521 12.983,6.358 12.983,4.922 L12.983,4.922 Z" class="cls-1"/>
</svg>
