<svg xmlns="http://www.w3.org/2000/svg" xmlns:xlink="http://www.w3.org/1999/xlink" preserveAspectRatio="xMidYMid" width="18" height="21" viewBox="0 0 18 21">
  <defs>
    <style>
      .cls-1 {
        fill: #959595;
        fill-rule: evenodd;
      }
    </style>
  </defs>
  <path d="M17.827,5.194 C17.997,5.026 18.044,4.782 17.947,4.574 C17.853,4.362 17.630,4.228 17.386,4.228 L12.733,4.228 L13.441,2.810 C14.116,3.010 14.842,2.755 15.127,2.182 C15.412,1.612 15.156,0.929 14.560,0.573 L14.710,0.270 C14.760,0.175 14.716,0.062 14.613,0.019 C14.510,-0.028 14.390,0.013 14.343,0.109 L14.190,0.413 C13.514,0.213 12.789,0.468 12.504,1.041 C12.219,1.614 12.474,2.295 13.071,2.651 L12.283,4.226 L0.603,4.226 C0.359,4.226 0.136,4.362 0.042,4.574 C-0.054,4.782 -0.007,5.026 0.163,5.191 L8.438,13.262 L8.438,19.989 L6.138,19.989 C5.844,19.989 5.603,20.214 5.603,20.488 C5.603,20.765 5.844,20.991 6.138,20.991 L11.852,20.991 C12.148,20.991 12.386,20.765 12.386,20.488 C12.386,20.214 12.148,19.989 11.852,19.989 L9.552,19.989 L9.552,13.264 L17.827,5.194 ZM11.713,5.369 L10.920,6.954 L4.554,6.954 L8.997,11.285 L13.438,6.954 L11.373,6.954 L12.163,5.369 L15.955,5.369 L8.997,12.157 L2.034,5.369 L11.713,5.369 Z" class="cls-1"/>
</svg>
