<svg xmlns="http://www.w3.org/2000/svg" xmlns:xlink="http://www.w3.org/1999/xlink" preserveAspectRatio="xMidYMid" width="8" height="20" viewBox="0 0 8 20">
  <defs>
    <style>
      .cls-1 {
        fill: #959595;
        fill-rule: evenodd;
      }
    </style>
  </defs>
  <path d="M3.999,19.998 C1.790,19.998 0.002,18.316 0.002,16.247 C0.002,15.136 0.515,14.139 1.336,13.452 L1.336,2.499 C1.336,1.114 2.525,-0.003 3.999,-0.003 C5.466,-0.003 6.663,1.117 6.663,2.499 L6.663,13.452 C7.483,14.139 7.997,15.136 7.997,16.247 C7.997,18.316 6.204,19.998 3.999,19.998 ZM5.329,14.080 L5.329,2.499 C5.329,1.806 4.738,1.248 3.999,1.248 C3.264,1.248 2.665,1.806 2.665,2.499 L2.665,14.080 C1.869,14.514 1.336,15.322 1.336,16.247 C1.336,17.627 2.525,18.747 3.999,18.747 C5.469,18.747 6.663,17.627 6.663,16.247 C6.663,15.319 6.126,14.514 5.329,14.080 ZM3.999,18.121 C2.894,18.121 1.998,17.282 1.998,16.247 C1.998,15.429 2.554,14.737 3.332,14.477 L3.332,4.993 C3.332,4.650 3.631,4.373 3.999,4.373 C4.369,4.373 4.666,4.650 4.666,4.993 L4.666,14.477 C5.440,14.737 5.996,15.429 5.996,16.247 C5.996,17.282 5.102,18.121 3.999,18.121 Z" class="cls-1"/>
</svg>
