<svg xmlns="http://www.w3.org/2000/svg" xmlns:xlink="http://www.w3.org/1999/xlink" preserveAspectRatio="xMidYMid" width="14" height="14" viewBox="0 0 14 14">
  <defs>
    <style>
      .cls-1 {
        fill: #fff;
        fill-rule: evenodd;
      }
    </style>
  </defs>
  <path d="M11.295,-0.000 L2.706,-0.000 C1.214,-0.000 -0.000,1.213 -0.000,2.705 L-0.000,5.563 L-0.000,11.295 C-0.000,12.787 1.214,14.000 2.706,14.000 L11.295,14.000 C12.787,14.000 14.000,12.787 14.000,11.295 L14.000,5.563 L14.000,2.705 C14.000,1.213 12.787,-0.000 11.295,-0.000 ZM12.071,1.613 L12.381,1.612 L12.381,1.921 L12.381,3.985 L10.015,3.993 L10.007,1.620 L12.071,1.613 ZM5.003,5.563 C5.450,4.942 6.179,4.536 7.000,4.536 C7.823,4.536 8.550,4.942 8.999,5.563 C9.291,5.968 9.465,6.463 9.465,7.000 C9.465,8.359 8.359,9.464 7.000,9.464 C5.641,9.464 4.537,8.359 4.537,7.000 C4.537,6.463 4.711,5.968 5.003,5.563 ZM12.637,11.295 C12.637,12.035 12.036,12.636 11.295,12.636 L2.706,12.636 C1.966,12.636 1.365,12.035 1.365,11.295 L1.365,5.563 L3.455,5.563 C3.273,6.007 3.172,6.492 3.172,7.000 C3.172,9.111 4.889,10.829 7.000,10.829 C9.111,10.829 10.828,9.111 10.828,7.000 C10.828,6.492 10.727,6.007 10.547,5.563 L12.637,5.563 L12.637,11.295 Z" class="cls-1"/>
</svg>
