<svg xmlns="http://www.w3.org/2000/svg" xmlns:xlink="http://www.w3.org/1999/xlink" preserveAspectRatio="xMidYMid" width="21" height="15" viewBox="0 0 21 15">
  <defs>
    <style>
      .cls-1 {
        fill: #959595;
        fill-rule: evenodd;
      }
    </style>
  </defs>
  <path d="M10.497,11.241 C9.439,11.241 8.581,12.083 8.581,13.117 C8.581,14.151 9.439,14.990 10.497,14.990 C11.555,14.990 12.413,14.151 12.413,13.117 C12.413,12.083 11.555,11.241 10.497,11.241 L10.497,11.241 ZM20.768,4.691 C18.203,1.710 14.459,-0.001 10.497,-0.001 C6.535,-0.001 2.791,1.710 0.226,4.691 C-0.114,5.087 -0.061,5.678 0.345,6.011 C0.522,6.158 0.741,6.230 0.959,6.230 C1.234,6.230 1.505,6.118 1.693,5.898 C3.892,3.339 7.100,1.872 10.497,1.872 C13.892,1.872 17.102,3.339 19.302,5.895 C19.489,6.118 19.760,6.230 20.035,6.230 C20.253,6.230 20.472,6.158 20.649,6.011 C21.055,5.678 21.108,5.087 20.768,4.691 L20.768,4.691 ZM10.497,3.748 C7.668,3.748 4.994,4.968 3.162,7.097 C2.822,7.493 2.872,8.085 3.278,8.417 C3.458,8.564 3.677,8.637 3.895,8.637 C4.167,8.637 4.439,8.524 4.629,8.304 C6.095,6.599 8.232,5.620 10.497,5.620 C12.762,5.620 14.899,6.599 16.366,8.304 C16.556,8.524 16.827,8.637 17.099,8.637 C17.317,8.637 17.536,8.567 17.717,8.417 C18.122,8.085 18.175,7.493 17.832,7.097 C16.001,4.968 13.327,3.748 10.497,3.748 L10.497,3.748 ZM10.497,7.497 C8.797,7.497 7.193,8.228 6.095,9.506 C5.755,9.899 5.808,10.491 6.213,10.824 C6.391,10.973 6.609,11.043 6.828,11.043 C7.103,11.043 7.374,10.930 7.565,10.711 C8.294,9.857 9.365,9.369 10.497,9.369 C11.630,9.369 12.700,9.857 13.430,10.711 C13.620,10.930 13.892,11.043 14.166,11.043 C14.385,11.043 14.603,10.973 14.781,10.824 C15.186,10.491 15.239,9.899 14.899,9.506 C13.801,8.228 12.197,7.497 10.497,7.497 L10.497,7.497 Z" class="cls-1"/>
</svg>
