<svg xmlns="http://www.w3.org/2000/svg" xmlns:xlink="http://www.w3.org/1999/xlink" preserveAspectRatio="xMidYMid" width="17" height="15.97" viewBox="0 0 17 15.97">
  <defs>
    <style>
      .cls-1 {
        fill: #959595;
        fill-rule: evenodd;
      }
    </style>
  </defs>
  <path d="M14.346,13.578 C14.801,15.705 12.535,16.167 11.537,15.890 C10.539,15.613 8.504,15.567 8.504,15.567 C8.504,15.567 6.463,15.613 5.465,15.890 C4.467,16.169 2.199,15.705 2.652,13.578 C3.105,11.450 5.101,11.542 5.648,8.674 C6.193,5.805 8.506,5.990 8.506,5.990 C8.506,5.990 10.813,5.805 11.358,8.674 C11.901,11.542 13.893,11.450 14.346,13.578 L14.346,13.578 ZM10.598,5.803 C11.826,6.165 13.182,5.176 13.629,3.595 C14.076,2.015 13.444,0.441 12.216,0.080 C10.988,-0.282 9.632,0.707 9.185,2.288 C8.738,3.868 9.370,5.442 10.598,5.803 L10.598,5.803 ZM15.688,5.228 C14.505,4.735 13.052,5.570 12.443,7.094 C11.833,8.618 12.297,10.251 13.480,10.742 C14.663,11.232 16.116,10.399 16.725,8.876 C17.334,7.352 16.870,5.721 15.688,5.228 L15.688,5.228 ZM6.400,5.803 C7.628,5.442 8.260,3.868 7.813,2.288 C7.366,0.709 6.008,-0.280 4.782,0.082 C3.556,0.443 2.922,2.017 3.369,3.597 C3.816,5.176 5.172,6.165 6.400,5.803 L6.400,5.803 ZM3.520,10.742 C4.703,10.249 5.167,8.616 4.557,7.094 C3.948,5.572 2.495,4.735 1.312,5.228 C0.130,5.721 -0.334,7.354 0.275,8.876 C0.884,10.399 2.337,11.234 3.520,10.742 L3.520,10.742 Z" class="cls-1"/>
</svg>
