<svg xmlns="http://www.w3.org/2000/svg" xmlns:xlink="http://www.w3.org/1999/xlink" preserveAspectRatio="xMidYMid" width="20" height="17" viewBox="0 0 20 17">
  <defs>
    <style>
      .cls-1 {
        fill: #959595;
        fill-rule: evenodd;
      }
    </style>
  </defs>
  <path d="M4.383,10.432 L4.383,9.127 L19.990,9.127 L19.990,10.432 L4.383,10.432 ZM7.754,8.743 C7.772,8.575 7.785,8.408 7.812,8.240 C7.852,7.781 7.943,7.334 8.034,6.895 C8.098,6.684 8.154,6.470 8.205,6.257 C8.282,6.055 8.354,5.852 8.425,5.653 C8.602,5.275 8.773,4.900 9.001,4.582 C9.053,4.498 9.104,4.417 9.156,4.337 C9.217,4.262 9.278,4.189 9.339,4.120 C9.461,3.979 9.558,3.826 9.690,3.704 C9.946,3.468 10.162,3.219 10.400,3.046 C10.631,2.864 10.823,2.685 11.004,2.573 C11.357,2.327 11.558,2.177 11.558,2.177 C11.558,2.177 11.321,2.258 10.906,2.414 C10.693,2.486 10.458,2.613 10.184,2.757 C9.900,2.887 9.619,3.098 9.302,3.320 C9.144,3.427 9.007,3.574 8.849,3.710 C8.773,3.782 8.696,3.854 8.617,3.927 C8.549,4.010 8.480,4.094 8.410,4.178 C8.111,4.510 7.864,4.905 7.641,5.327 C7.544,5.543 7.446,5.766 7.345,5.988 C7.267,6.216 7.190,6.450 7.120,6.687 C7.007,7.160 6.898,7.648 6.846,8.133 C6.819,8.338 6.803,8.540 6.791,8.743 L5.605,8.743 C5.593,8.569 5.584,8.396 5.584,8.223 C5.584,4.894 8.148,2.151 11.443,1.787 C11.229,1.600 11.095,1.331 11.095,1.034 C11.095,0.462 11.583,-0.000 12.186,-0.000 C12.790,-0.000 13.278,0.462 13.278,1.034 C13.278,1.331 13.140,1.600 12.930,1.787 C16.225,2.151 18.786,4.894 18.786,8.223 C18.786,8.399 18.777,8.572 18.764,8.745 C14.591,8.745 11.607,8.745 7.754,8.743 ZM9.358,10.896 C9.760,10.896 10.077,11.673 9.348,11.826 C8.626,11.982 6.755,12.473 6.755,12.473 L10.025,12.666 C10.025,12.666 12.790,11.722 13.582,11.358 C14.378,10.992 14.710,11.890 14.299,12.149 C13.890,12.409 10.458,14.632 9.894,14.736 C9.333,14.840 5.185,14.736 4.706,14.736 C4.227,14.736 3.752,15.513 3.752,15.513 L3.136,11.826 L5.459,11.035 C5.459,11.035 8.958,10.896 9.358,10.896 ZM0.012,17.000 L0.012,12.222 L2.682,11.777 L3.572,16.371 L0.012,17.000 Z" class="cls-1"/>
</svg>
