<svg xmlns="http://www.w3.org/2000/svg" xmlns:xlink="http://www.w3.org/1999/xlink" preserveAspectRatio="xMidYMid" width="27" height="12" viewBox="0 0 27 12">
  <defs>
    <style>
      .cls-1 {
        fill: #959595;
        fill-rule: evenodd;
      }
    </style>
  </defs>
  <path d="M0.953,-0.000 L16.197,-0.000 L18.519,4.487 L25.961,4.487 L25.961,6.833 L26.992,6.833 L26.992,9.413 L24.604,9.413 C24.562,10.801 23.411,11.916 21.992,11.916 C20.560,11.916 19.396,10.780 19.377,9.373 C19.377,9.386 19.373,9.401 19.373,9.415 L8.063,9.415 C8.063,10.841 6.891,11.995 5.444,11.995 C3.997,11.995 2.825,10.839 2.825,9.415 L0.001,9.415 L0.953,-0.000 ZM21.992,10.978 C22.911,10.978 23.658,10.240 23.658,9.336 C23.658,8.431 22.911,7.695 21.992,7.695 C21.072,7.695 20.325,8.431 20.325,9.336 C20.325,10.242 21.072,10.978 21.992,10.978 L21.992,10.978 ZM13.497,5.738 L14.609,5.738 L14.609,5.034 L13.497,5.034 L13.497,5.738 ZM12.545,4.487 L17.148,4.487 L15.661,0.967 L12.543,0.967 L12.545,4.487 ZM7.542,5.738 L8.654,5.738 L8.654,5.034 L7.542,5.034 L7.542,5.738 ZM11.691,4.489 L11.691,0.967 L7.087,0.967 L7.087,4.487 L11.691,4.489 ZM5.444,11.058 C6.364,11.058 7.111,10.320 7.111,9.415 C7.111,8.509 6.364,7.773 5.444,7.773 C4.526,7.773 3.779,8.511 3.779,9.415 C3.777,10.320 4.526,11.058 5.444,11.058 L5.444,11.058 ZM1.905,4.487 L6.513,4.487 L6.513,0.967 L1.907,0.967 L1.907,4.487 L1.905,4.487 Z" class="cls-1"/>
</svg>
