<svg xmlns="http://www.w3.org/2000/svg" xmlns:xlink="http://www.w3.org/1999/xlink" preserveAspectRatio="xMidYMid" width="15" height="12" viewBox="0 0 15 12">
  <defs>
    <style>
      .cls-1 {
        fill: #666;
        fill-rule: evenodd;
      }
    </style>
  </defs>
  <path d="M15.001,1.413 C14.449,1.654 13.855,1.817 13.233,1.890 C13.869,1.515 14.357,0.921 14.586,0.213 C13.991,0.560 13.333,0.812 12.631,0.948 C12.071,0.359 11.270,-0.009 10.385,-0.009 C8.686,-0.009 7.308,1.349 7.308,3.023 C7.308,3.261 7.334,3.491 7.387,3.713 C4.830,3.586 2.563,2.380 1.044,0.545 C0.779,0.994 0.627,1.515 0.627,2.070 C0.627,3.121 1.171,4.050 1.996,4.594 C1.492,4.579 1.017,4.441 0.602,4.215 L0.602,4.253 C0.602,5.722 1.662,6.948 3.071,7.225 C2.813,7.297 2.541,7.332 2.260,7.332 C2.062,7.332 1.868,7.314 1.681,7.278 C2.073,8.483 3.209,9.360 4.556,9.383 C3.502,10.197 2.175,10.681 0.734,10.681 C0.485,10.681 0.240,10.668 -0.001,10.639 C1.361,11.499 2.979,12.001 4.717,12.001 C10.379,12.001 13.473,7.382 13.473,3.374 C13.473,3.243 13.471,3.111 13.465,2.982 C14.067,2.555 14.589,2.020 15.001,1.413 " class="cls-1"/>
</svg>
