<svg xmlns="http://www.w3.org/2000/svg" xmlns:xlink="http://www.w3.org/1999/xlink" preserveAspectRatio="xMidYMid" width="16" height="14" viewBox="0 0 16 14">
  <defs>
    <style>
      .cls-1 {
        fill: #fff;
        fill-rule: evenodd;
      }
    </style>
  </defs>
  <path d="M11.274,1.457 L11.274,4.583 C11.201,4.673 11.113,4.747 11.024,4.805 C10.927,4.864 10.855,4.896 10.790,4.896 C10.718,4.896 10.661,4.872 10.629,4.830 C10.587,4.780 10.572,4.715 10.572,4.616 L10.572,1.457 L9.750,1.457 L9.750,4.896 C9.750,5.145 9.797,5.326 9.895,5.450 C9.990,5.574 10.137,5.632 10.322,5.632 C10.484,5.632 10.637,5.591 10.806,5.508 C10.967,5.418 11.120,5.294 11.274,5.120 L11.274,5.574 L12.097,5.574 L12.097,1.457 L11.274,1.457 ZM8.765,1.656 C8.547,1.449 8.265,1.350 7.927,1.350 C7.556,1.350 7.258,1.449 7.032,1.640 C6.813,1.830 6.702,2.077 6.702,2.400 L6.702,4.533 C6.702,4.889 6.813,5.161 7.023,5.368 C7.241,5.574 7.532,5.682 7.886,5.682 C8.257,5.682 8.556,5.583 8.765,5.376 C8.983,5.177 9.088,4.905 9.088,4.549 L9.088,2.425 C9.088,2.111 8.975,1.855 8.765,1.656 ZM8.249,4.616 C8.249,4.723 8.217,4.805 8.152,4.872 C8.088,4.938 7.999,4.971 7.886,4.971 C7.782,4.971 7.693,4.938 7.636,4.872 C7.580,4.814 7.547,4.723 7.547,4.616 L7.547,2.367 C7.547,2.276 7.580,2.202 7.644,2.152 C7.701,2.094 7.789,2.070 7.886,2.070 C7.991,2.070 8.080,2.094 8.152,2.152 C8.217,2.202 8.249,2.276 8.249,2.367 L8.249,4.616 ZM5.701,-0.006 L5.129,2.226 L5.064,2.226 L4.467,-0.006 L3.532,-0.006 L4.637,3.367 L4.637,5.574 L5.564,5.574 L5.564,3.260 L6.636,-0.006 L5.701,-0.006 ZM12.113,9.824 C12.160,9.890 12.184,10.005 12.184,10.154 L12.184,10.534 L11.547,10.534 L11.547,10.154 C11.547,10.005 11.563,9.890 11.620,9.824 C11.669,9.757 11.750,9.716 11.871,9.716 C11.984,9.716 12.064,9.757 12.113,9.824 ZM9.581,9.807 C9.532,9.741 9.451,9.708 9.354,9.708 C9.306,9.708 9.249,9.716 9.201,9.741 C9.152,9.765 9.096,9.807 9.048,9.857 L9.048,12.188 C9.104,12.246 9.169,12.295 9.225,12.320 C9.282,12.345 9.338,12.362 9.395,12.362 C9.492,12.362 9.556,12.337 9.595,12.278 C9.636,12.230 9.661,12.146 9.661,12.022 L9.661,10.088 C9.661,9.964 9.636,9.873 9.581,9.807 ZM9.581,9.807 C9.532,9.741 9.451,9.708 9.354,9.708 C9.306,9.708 9.249,9.716 9.201,9.741 C9.152,9.765 9.096,9.807 9.048,9.857 L9.048,12.188 C9.104,12.246 9.169,12.295 9.225,12.320 C9.282,12.345 9.338,12.362 9.395,12.362 C9.492,12.362 9.556,12.337 9.595,12.278 C9.636,12.230 9.661,12.146 9.661,12.022 L9.661,10.088 C9.661,9.964 9.636,9.873 9.581,9.807 ZM13.718,6.922 L2.282,6.922 C1.031,6.922 -0.000,7.980 -0.000,9.270 L-0.000,11.659 C-0.000,12.948 1.031,13.999 2.282,13.999 L13.718,13.999 C14.968,13.999 16.000,12.948 16.000,11.659 L16.000,9.270 C16.000,7.980 14.968,6.922 13.718,6.922 ZM5.363,8.567 L4.508,8.567 L4.508,12.899 L3.685,12.899 L3.685,8.567 L2.838,8.567 L2.838,7.832 L5.363,7.832 L5.363,8.567 ZM7.765,12.899 L7.032,12.899 L7.032,12.486 C6.902,12.642 6.757,12.758 6.613,12.833 C6.467,12.916 6.330,12.957 6.192,12.957 C6.024,12.957 5.895,12.899 5.806,12.783 C5.725,12.675 5.685,12.510 5.685,12.287 L5.685,9.154 L6.411,9.154 L6.411,12.031 C6.411,12.113 6.427,12.180 6.459,12.221 C6.484,12.262 6.540,12.278 6.605,12.278 C6.660,12.278 6.726,12.254 6.806,12.196 C6.895,12.146 6.968,12.080 7.032,11.997 L7.032,9.154 L7.765,9.154 L7.765,12.899 ZM10.411,12.122 C10.411,12.386 10.354,12.593 10.241,12.733 C10.129,12.874 9.959,12.948 9.742,12.948 C9.595,12.948 9.475,12.923 9.362,12.866 C9.249,12.807 9.145,12.725 9.048,12.609 L9.048,12.899 L8.314,12.899 L8.314,7.832 L9.048,7.832 L9.048,9.459 C9.145,9.353 9.249,9.262 9.362,9.203 C9.475,9.145 9.588,9.113 9.701,9.113 C9.927,9.113 10.104,9.195 10.225,9.353 C10.347,9.509 10.411,9.741 10.411,10.047 L10.411,12.122 ZM12.943,11.122 L11.547,11.122 L11.547,11.824 C11.547,12.022 11.563,12.155 11.613,12.230 C11.660,12.312 11.750,12.345 11.863,12.345 C11.984,12.345 12.064,12.312 12.113,12.246 C12.160,12.188 12.184,12.039 12.184,11.824 L12.184,11.650 L12.943,11.650 L12.943,11.840 C12.943,12.230 12.847,12.518 12.660,12.708 C12.484,12.907 12.208,12.998 11.846,12.998 C11.515,12.998 11.258,12.899 11.072,12.692 C10.887,12.486 10.790,12.204 10.790,11.840 L10.790,10.162 C10.790,9.840 10.894,9.575 11.105,9.369 C11.306,9.170 11.572,9.063 11.903,9.063 C12.234,9.063 12.492,9.162 12.668,9.353 C12.847,9.543 12.943,9.807 12.943,10.162 L12.943,11.122 ZM9.354,9.708 C9.306,9.708 9.249,9.716 9.201,9.741 C9.152,9.765 9.096,9.807 9.048,9.857 L9.048,12.188 C9.104,12.246 9.169,12.295 9.225,12.320 C9.282,12.345 9.338,12.362 9.395,12.362 C9.492,12.362 9.556,12.337 9.595,12.278 C9.636,12.230 9.661,12.146 9.661,12.022 L9.661,10.088 C9.661,9.964 9.636,9.873 9.581,9.807 C9.532,9.741 9.451,9.708 9.354,9.708 ZM9.581,9.807 C9.532,9.741 9.451,9.708 9.354,9.708 C9.306,9.708 9.249,9.716 9.201,9.741 C9.152,9.765 9.096,9.807 9.048,9.857 L9.048,12.188 C9.104,12.246 9.169,12.295 9.225,12.320 C9.282,12.345 9.338,12.362 9.395,12.362 C9.492,12.362 9.556,12.337 9.595,12.278 C9.636,12.230 9.661,12.146 9.661,12.022 L9.661,10.088 C9.661,9.964 9.636,9.873 9.581,9.807 ZM9.581,9.807 C9.532,9.741 9.451,9.708 9.354,9.708 C9.306,9.708 9.249,9.716 9.201,9.741 C9.152,9.765 9.096,9.807 9.048,9.857 L9.048,12.188 C9.104,12.246 9.169,12.295 9.225,12.320 C9.282,12.345 9.338,12.362 9.395,12.362 C9.492,12.362 9.556,12.337 9.595,12.278 C9.636,12.230 9.661,12.146 9.661,12.022 L9.661,10.088 C9.661,9.964 9.636,9.873 9.581,9.807 Z" class="cls-1"/>
</svg>
