<svg xmlns="http://www.w3.org/2000/svg" xmlns:xlink="http://www.w3.org/1999/xlink" preserveAspectRatio="xMidYMid" width="141" height="141" viewBox="0 0 141 141">
  <defs>
    <style>
      .cls-1 {
        fill: #fff;
      }

      .cls-1, .cls-2 {
        fill-rule: evenodd;
      }

      .cls-2 {
        fill: #000;
      }
    </style>
  </defs>
  <g>
    <path d="M70.500,0.005 L140.995,70.500 L70.500,140.995 L0.005,70.500 L70.500,0.005 Z" class="cls-1"/>
    <path d="M56.811,86.826 C56.628,86.771 56.536,86.736 56.442,86.716 C54.827,86.359 54.823,86.358 54.049,87.843 C53.610,88.686 53.319,89.571 53.403,90.533 C53.503,91.687 53.609,92.842 53.733,93.994 C53.994,96.408 55.246,98.205 57.334,99.455 C58.075,99.899 58.852,100.288 59.592,100.759 C57.668,100.795 55.837,100.407 54.101,99.619 C50.961,98.193 49.436,95.524 49.732,91.918 C49.925,89.563 50.842,87.503 52.349,85.633 C52.180,85.528 52.056,85.426 51.914,85.367 C46.237,82.991 42.741,78.765 41.147,72.982 C39.680,67.656 39.551,62.306 41.133,56.968 C43.158,50.138 47.733,45.864 54.679,44.005 C58.552,42.969 62.499,42.836 66.480,43.145 C69.559,43.385 72.586,43.891 75.572,44.663 C76.070,44.792 76.608,44.771 77.247,44.830 C77.414,45.844 77.591,46.878 77.754,47.915 C77.991,49.409 78.212,50.906 78.451,52.400 C78.596,53.304 78.605,53.303 77.674,53.827 C77.628,53.713 77.573,53.609 77.543,53.499 C76.466,49.605 73.927,47.000 70.048,45.859 C65.277,44.455 60.459,44.476 55.794,46.375 C51.022,48.318 48.252,51.988 46.916,56.790 C46.414,58.596 46.143,60.443 46.082,62.317 C45.962,66.032 46.113,69.723 47.083,73.341 C47.889,76.345 49.178,79.096 51.493,81.293 C52.417,82.170 53.439,82.909 54.581,83.448 C54.713,83.390 54.809,83.362 54.889,83.310 C56.113,82.524 56.092,82.524 56.000,81.090 C55.747,77.146 56.290,73.308 57.773,69.632 C60.120,63.808 64.555,60.300 70.629,58.688 C74.503,57.659 78.449,57.525 82.430,57.834 C85.509,58.074 88.536,58.582 91.522,59.355 C92.019,59.484 92.557,59.461 93.181,59.517 C93.350,60.542 93.525,61.579 93.690,62.619 C93.926,64.113 94.149,65.610 94.388,67.103 C94.532,68.005 94.542,68.003 93.590,68.512 C93.541,68.360 93.490,68.219 93.448,68.075 C92.351,64.274 89.860,61.707 86.056,60.573 C81.219,59.130 76.345,59.161 71.622,61.109 C67.153,62.951 64.439,66.361 63.034,70.844 C62.147,73.675 61.917,76.588 61.995,79.533 C61.998,79.657 62.039,79.779 62.077,79.979 C62.868,79.834 63.629,79.680 64.395,79.557 C67.040,79.134 69.683,79.199 72.323,79.615 C73.358,79.777 74.402,79.883 75.432,80.071 C75.921,80.159 76.183,79.983 76.364,79.589 C76.701,78.857 77.037,78.125 77.354,77.386 C77.478,77.096 77.551,76.785 77.648,76.478 C78.613,76.954 78.605,76.953 78.460,77.857 C78.329,78.676 78.218,79.498 78.087,80.399 C85.109,81.394 92.031,82.375 99.000,83.363 C98.773,84.090 98.387,84.394 97.703,84.445 C96.889,84.506 96.086,84.696 95.274,84.797 C94.819,84.854 94.561,85.054 94.489,85.507 C94.347,86.396 94.163,87.279 94.042,88.171 C93.630,91.220 93.683,94.464 94.181,97.601 C94.634,97.636 95.109,97.672 95.631,97.712 C95.663,98.415 95.314,98.755 94.722,99.031 C91.603,100.482 88.286,101.161 84.894,101.614 C82.318,101.957 79.736,102.063 77.146,101.964 C74.382,101.859 71.673,101.413 69.058,100.505 C62.836,98.343 58.952,94.045 57.120,87.876 C57.020,87.538 56.921,87.201 56.811,86.826 M62.823,87.362 C63.112,88.308 63.334,89.177 63.642,90.014 C65.449,94.933 68.801,98.224 74.076,99.423 C77.005,100.090 79.993,100.110 82.971,99.950 C84.094,99.889 85.247,99.608 86.298,99.206 C88.012,98.551 89.056,97.261 89.172,95.403 C89.263,93.958 89.311,92.508 89.289,91.061 C89.263,89.423 89.215,87.779 88.764,86.180 C88.519,85.308 88.067,84.770 87.064,84.577 C84.143,84.018 81.243,83.346 78.334,82.724 C78.154,82.686 77.961,82.696 77.729,82.680 C77.561,83.636 77.401,84.545 77.253,85.385 C76.330,85.556 75.494,85.678 74.676,85.870 C71.099,86.709 67.485,87.266 63.799,87.310 C63.515,87.313 63.232,87.340 62.823,87.362 M74.445,81.977 C74.063,81.878 73.858,81.805 73.645,81.771 C72.226,81.547 70.806,81.317 69.383,81.114 C67.423,80.835 65.468,80.836 63.535,81.311 C63.040,81.433 62.560,81.609 62.043,81.769 C62.123,82.642 62.185,83.407 62.268,84.171 C62.306,84.517 62.388,84.859 62.464,85.280 C66.796,85.428 70.909,85.067 74.445,81.977 " class="cls-2"/>
  </g>
</svg>
